<svg xmlns="http://www.w3.org/2000/svg" viewBox="0 0 435.2 118.7">
  <defs>
    <style>
      .cls-1 {
        fill: #fff;
      }
    </style>
  </defs>
  <title>Sveza_white</title>
  <g id="Layer_2" data-name="Layer 2">
    <g id="Layer_1-2" data-name="Layer 1">
      <g>
        <path class="cls-1" d="M0,94.3l9.8-5.9c6.9,12.7,14.9,19.1,24,19.1a23.5,23.5,0,0,0,11-2.7,20.4,20.4,0,0,0,7.8-7.3,19.3,19.3,0,0,0,2.6-9.7,20.1,20.1,0,0,0-3.9-11.4C47.7,71.3,41.1,66,31.4,60.7c-9.6-7.3-15.6-12.6-17.9-15.8A29.2,29.2,0,0,1,7.3,27.1a26.7,26.7,0,0,1,3.6-13.7A26,26,0,0,1,21.1,3.6,29.5,29.5,0,0,1,35.4,0,30.1,30.1,0,0,1,50.6,4.1c4.8,2.7,9.8,7.7,15.1,14.9l-9.5,7.1c-4.3-5.7-8-9.5-11-11.3A19,19,0,0,0,35.1,12a15.7,15.7,0,0,0-11.4,4.3,13.6,13.6,0,0,0-4.4,10.4A18.7,18.7,0,0,0,20.8,34a27.6,27.6,0,0,0,5.8,7.7c1.5,1.5,6.5,5.3,15,11.6,10,7.4,16.8,13.5,20.5,18.3a25.5,25.5,0,0,1,5.6,15.9q0,12.6-9.6,21.9a31.9,31.9,0,0,1-23.2,9.3,34.5,34.5,0,0,1-19.1-5.6C10,109.4,4.8,103.1,0,94.3Z"/>
        <path class="cls-1" d="M79.8,32.4H91.5l28.6,62.3,28.4-62.3h11.8L121.1,118h-1.9Z"/>
        <path class="cls-1" d="M249.1,87.4l9.2,5a50.6,50.6,0,0,1-10.5,14.4,42.8,42.8,0,0,1-13.5,8.3,47.2,47.2,0,0,1-16.9,2.8c-13.9,0-24.8-4.5-32.7-13.7s-11.8-19.4-11.8-30.9a46.2,46.2,0,0,1,10-29q12.6-16.2,33.9-16.2c14.6,0,26.2,5.5,34.9,16.6,6.2,7.8,9.3,17.5,9.4,29.2H184.2c.2,10,3.4,18.1,9.6,24.5a30.1,30.1,0,0,0,22.7,9.6,37,37,0,0,0,12.7-2.3,35.8,35.8,0,0,0,10.5-6.1C242.5,97.1,245.7,93.1,249.1,87.4Zm0-23a38.4,38.4,0,0,0-6.4-14.1,31.4,31.4,0,0,0-11.2-8.5,34.9,34.9,0,0,0-14.6-3.2,31.2,31.2,0,0,0-21.6,8.1q-6.6,6-9.9,17.7Z"/>
        <path class="cls-1" d="M274.6,31.4h62.8l-48.5,76.7h47v9.8H270L318.4,41H274.6Z"/>
        <path class="cls-1" d="M390.4,28.1c13.2,0,24.1,4.7,32.8,14.3a44,44,0,0,1,12,30.9q.2,44.4,0,45H423.5V98.9c-6,11.3-17.1,17.7-33.1,19-13.1,0-23.8-4.4-32.1-13.3a44.7,44.7,0,0,1-12.4-31.3,45.1,45.1,0,0,1,11.7-30.9C366.3,32.9,377.2,28.1,390.4,28.1Zm0,10.7c-9.1,0-16.9,3.4-23.5,10.2a34,34,0,0,0-9.8,24.5,35,35,0,0,0,5,17.8c3.4,5.8,9.1,10.6,17.1,14.5q30,6.8,42.8-27.3a55.9,55.9,0,0,0-2.4-20.9,30.4,30.4,0,0,0-6-8.6A30.7,30.7,0,0,0,390.4,38.8Z"/>
      </g>
    </g>
  </g>
</svg>
