<svg xmlns="http://www.w3.org/2000/svg" viewBox="0 0 132.9 30.1">
  <defs>
    <style>
      .cls-1 {
        fill: none;
        stroke: #fff;
        stroke-miterlimit: 10;
      }
    </style>
  </defs>
  <title>teamhome_outline</title>
  <g id="Layer_2" data-name="Layer 2">
    <g id="black_solid">
      <g>
        <path class="cls-1" d="M10.1,22.4H6.3V7H.5V3.2H15.8V7H10.1Z"/>
        <path class="cls-1" d="M22.4,11.9h.9l1-.2a2.5,2.5,0,0,0,.9-.4,2.7,2.7,0,0,0,.8-.7l.6-.8,2.6,2.7-1.1,1.3a7.5,7.5,0,0,1-1.5.9,4.4,4.4,0,0,1-1.6.6,4.7,4.7,0,0,1-1.7.2,7.1,7.1,0,0,1-2.9-.5,8.7,8.7,0,0,1-2.3-1.6,6.7,6.7,0,0,1-1.6-2.4,9.4,9.4,0,0,1-.5-3A10.1,10.1,0,0,1,16.5,5a6,6,0,0,1,1.6-2.4A8.7,8.7,0,0,1,20.4,1,9.3,9.3,0,0,1,23.3.5L25,.7l1.7.6a7.1,7.1,0,0,1,1.4,1l1.2,1.3Zm1.9-7.6h-1a3.2,3.2,0,0,0-1.4.3,3.5,3.5,0,0,0-1.2.7,5.7,5.7,0,0,0-.8,1.3,7.8,7.8,0,0,0-.2,1.6v.4a1.3,1.3,0,0,0,.1.6,1.1,1.1,0,0,0,.1.5V10Z"/>
        <path class="cls-1" d="M44.2,25.4h-.9l-1.4-2-1.1.9-1.2.7-1.3.5H36.9a6.4,6.4,0,0,1-2.8-.5,7.2,7.2,0,0,1-2.4-1.4,7.5,7.5,0,0,1-1.5-2.4,8.3,8.3,0,0,1-.6-3.2,7.8,7.8,0,0,1,.6-3.1,7.5,7.5,0,0,1,1.5-2.4,6.1,6.1,0,0,1,2.4-1.5,6.4,6.4,0,0,1,2.8-.6l1.4.2,1.3.5,1.2.7,1.1.9,1.4-1.7h.9Zm-3.7-7.3a4,4,0,0,0-.3-1.5,3.7,3.7,0,0,0-.7-1.2,4.7,4.7,0,0,0-1.2-.9,3.2,3.2,0,0,0-1.4-.3l-1.4.2a5,5,0,0,0-1.2.8,3.5,3.5,0,0,0-.7,1.2,5,5,0,0,0,0,3.4,7.5,7.5,0,0,0,.7,1.2,2.9,2.9,0,0,0,1.2.7,3.4,3.4,0,0,0,2.8,0l1.2-.9a3.3,3.3,0,0,0,.7-1.3A3.2,3.2,0,0,0,40.5,18.1Z"/>
        <path class="cls-1" d="M64.5,22.4H60.8V13.3a1.5,1.5,0,0,0-.1-.7c-.1-.3-.3-.4-.4-.6l-.6-.4-.7-.2-.7.2-.6.4a1.3,1.3,0,0,0-.4.6,1.5,1.5,0,0,0-.1.7v9.1H53.5V13.3a1.5,1.5,0,0,0-.1-.7A1.3,1.3,0,0,0,53,12l-.6-.4-.7-.2-.7.2-.6.4a1.3,1.3,0,0,0-.4.6,1.5,1.5,0,0,0-.1.7v9.1H46.2V8h.9l1,1.1a9.5,9.5,0,0,1,1.7-1,5.8,5.8,0,0,1,1.9-.3,4.1,4.1,0,0,1,1.9.4,3.6,3.6,0,0,1,1.7,1.3,6,6,0,0,1,.8-.8l.9-.5a1.7,1.7,0,0,1,1-.3h1a4.9,4.9,0,0,1,2.1.4,5.7,5.7,0,0,1,1.8,1.2A9.9,9.9,0,0,1,64,11.1a5.4,5.4,0,0,1,.5,2.2Z"/>
        <path class="cls-1" d="M70.6,29.4H66.7V10.2h3.9v7.7h7.6V10.2h3.9V29.4H78.2V21.7H70.6Z"/>
        <path class="cls-1" d="M98.3,16.1a9.4,9.4,0,0,1-.5,3,7.8,7.8,0,0,1-1.6,2.4,9.4,9.4,0,0,1-2.3,1.6,7.1,7.1,0,0,1-2.9.5,6.6,6.6,0,0,1-2.8-.5,10,10,0,0,1-2.4-1.6,9.7,9.7,0,0,1-1.5-2.4,7.3,7.3,0,0,1-.6-3,7.3,7.3,0,0,1,.6-3,7,7,0,0,1,1.5-2.4,7.8,7.8,0,0,1,2.4-1.6A6.7,6.7,0,0,1,91,8.5a9.3,9.3,0,0,1,2.9.5,7.3,7.3,0,0,1,2.3,1.6A6,6,0,0,1,97.8,13,9.6,9.6,0,0,1,98.3,16.1Zm-3.6,0a4.1,4.1,0,0,0-.3-1.6,3.6,3.6,0,0,0-.8-1.2,2.5,2.5,0,0,0-1.2-.8,3.4,3.4,0,0,0-2.8,0,2.8,2.8,0,0,0-1.1.8,2.5,2.5,0,0,0-.8,1.2,4.1,4.1,0,0,0-.3,1.6,3.7,3.7,0,0,0,.3,1.5,3.5,3.5,0,0,0,.8,1.3l1.1.8a3.4,3.4,0,0,0,2.8,0,3.7,3.7,0,0,0,2-2A4.1,4.1,0,0,0,94.7,16.1Z"/>
        <path class="cls-1" d="M117.8,19.4h-3.6V10.3a1.4,1.4,0,0,0-.2-.7,1.3,1.3,0,0,0-.4-.6.9.9,0,0,0-.6-.4l-.7-.2-.7.2a1,1,0,0,0-.5.4,1.3,1.3,0,0,0-.4.6,1.4,1.4,0,0,0-.2.7v9.1h-3.6V10.3a1.4,1.4,0,0,0-.2-.7,1.3,1.3,0,0,0-.4-.6,1,1,0,0,0-.5-.4l-.8-.2-.7.2a1,1,0,0,0-.5.4,1.3,1.3,0,0,0-.4.6,1.4,1.4,0,0,0-.2.7v9.1H99.6V5h.9l1,1.1,1.6-1,1.9-.3a4.5,4.5,0,0,1,2,.4,4.1,4.1,0,0,1,1.7,1.3l.7-.8a3.1,3.1,0,0,1,1-.5,1.6,1.6,0,0,1,.9-.3h1a5.4,5.4,0,0,1,2.2.4,6.1,6.1,0,0,1,2.9,2.9,5.4,5.4,0,0,1,.4,2.2Z"/>
        <path class="cls-1" d="M125.4,25.9h.9l1-.2.9-.4a2.7,2.7,0,0,0,.8-.7l.6-.8,2.6,2.7-1.1,1.3a11.9,11.9,0,0,1-1.5.9,4.4,4.4,0,0,1-1.6.6,5,5,0,0,1-1.7.2,7.1,7.1,0,0,1-2.9-.5,7.3,7.3,0,0,1-2.3-1.6,6.7,6.7,0,0,1-1.6-2.4,7.3,7.3,0,0,1-.6-3,7.8,7.8,0,0,1,.6-3.1,6,6,0,0,1,1.6-2.4,7.3,7.3,0,0,1,2.3-1.6,9.3,9.3,0,0,1,2.9-.5l1.7.2,1.6.6,1.5,1,1.2,1.3Zm1.9-7.6h-1a4,4,0,0,0-1.5.3,4.1,4.1,0,0,0-1.1.7,5.7,5.7,0,0,0-.8,1.3,4.1,4.1,0,0,0-.3,1.6c0,.1.1.3.1.4v.6a.7.7,0,0,1,.1.5.8.8,0,0,1,.2.4Z"/>
      </g>
    </g>
  </g>
</svg>
